<?xml version="1.0" encoding="UTF-8"?>
<svg version="1.1" xmlns="http://www.w3.org/2000/svg" width="2000" height="492">
<path d="M0 0 C89.70814978 0 89.70814978 0 110.15625 19.0234375 C123.9680707 33.83017749 125.79376991 49.90633586 125.14355469 69.32910156 C124.32694207 84.52254034 117.07207763 97.73939386 106 108 C101.01686266 111.98199343 95.82536188 115.39391705 90 118 C91.4160506 121.78518732 93.15421065 125.19749321 95.16796875 128.69921875 C95.80661865 129.81337158 96.44526855 130.92752441 97.10327148 132.07543945 C97.79790543 133.27952246 98.49265104 134.48354106 99.1875 135.6875 C99.90527813 136.93629907 100.62280377 138.18524329 101.34008789 139.43432617 C102.8217583 142.01302217 104.30552039 144.5904977 105.79101562 147.16699219 C107.55881466 150.23325452 109.32272646 153.30172399 111.08477783 156.37129211 C117.94313995 168.31758969 124.85198222 180.22445688 132 192 C137.96856624 180.11869682 143.85441708 168.19837594 149.6875 156.25 C150.12674805 155.35071777 150.56599609 154.45143555 151.01855469 153.52490234 C156.80908843 141.66080733 162.48448776 129.75752169 167.98706055 117.75683594 C172.8262992 107.25664443 177.91036547 96.88053147 183 86.5 C188.65496529 74.96620361 194.26229188 63.42325583 199.625 51.75 C201.74336384 47.16357526 203.86886492 42.58050216 206 38 C206.35251831 37.24132629 206.70503662 36.48265259 207.0682373 35.70098877 C209.45212052 30.57748144 211.85887017 25.46552409 214.28973389 20.36413574 C215.09162582 18.67348597 215.88700822 16.9797321 216.67559814 15.28283691 C217.77702519 12.91566245 218.90111863 10.56060774 220.03125 8.20703125 C220.35785614 7.4918483 220.68446228 6.77666534 221.02096558 6.03981018 C223.380721 1.21418383 223.380721 1.21418383 226.74804688 0.04956055 C227.49119141 0.03320557 228.23433594 0.01685059 229 0 C238.24696219 17.04908654 246.61202873 34.51837514 255 52 C255.52803223 53.10021484 256.05606445 54.20042969 256.60009766 55.33398438 C259.29718602 60.95874356 261.98544523 66.58768505 264.67138672 72.21777344 C271.70513454 86.94702559 278.79255428 101.6504961 285.89266968 116.34783936 C291.45396217 127.86040986 296.99125725 139.38439075 302.51904297 150.91308594 C304.04375915 154.09121178 305.57045142 157.26838185 307.09765625 160.4453125 C309.59849253 165.64785386 312.09534335 170.85228948 314.58935547 176.05810547 C315.52448644 178.00831804 316.4609945 179.95787094 317.39892578 181.90673828 C318.68620361 184.58195674 319.96869562 187.25941662 321.25 189.9375 C321.63309326 190.73075684 322.01618652 191.52401367 322.41088867 192.34130859 C325 197.77183163 325 197.77183163 325 200 C313.12 200 301.24 200 289 200 C283.13185569 187.42540506 277.53289851 174.72566657 272 162 C241.97 161.67 211.94 161.34 181 161 C180.01 163.97 179.02 166.94 178 170 C173.71 179.9 169.42 189.8 165 200 C143.22 200 121.44 200 99 200 C95.04 192.41 91.08 184.82 87 177 C82.55727601 168.8627498 82.55727601 168.8627498 78.10546875 160.73046875 C74.62303905 154.33721746 71.23957388 147.89340187 67.875 141.4375 C67.31820557 140.37225098 66.76141113 139.30700195 66.18774414 138.20947266 C65.66946045 137.21093262 65.15117676 136.21239258 64.6171875 135.18359375 C64.15940918 134.30243896 63.70163086 133.42128418 63.22998047 132.51342773 C62.0317133 130.06480517 61.01244645 127.53111613 60 125 C50.43 125 40.86 125 31 125 C31 149.75 31 174.5 31 200 C20.77 200 10.54 200 0 200 C0 134 0 68 0 0 Z M31 26 C31 50.42 31 74.84 31 100 C59.97112671 101.01622661 59.97112671 101.01622661 84.95703125 89.05078125 C92.82792114 81.14979236 95.15688673 72.00040284 95.375 61.1875 C95.33883451 51.97806462 93.71391306 44.5285126 87.375 37.625 C71.59640469 23.46769155 51.19432085 26 31 26 Z M227 59 C221.97469174 69.68167829 217.06602774 80.41316277 212.22094727 91.17773438 C211.0696302 93.73416779 209.91476063 96.28897658 208.75976562 98.84375 C207.99717717 100.53635983 207.23480071 102.2290652 206.47265625 103.921875 C206.14217789 104.65170593 205.81169952 105.38153687 205.47120667 106.13348389 C201.47999915 115.02296714 197.78481032 124.0110755 194 133 C215.78 133 237.56 133 260 133 C251.81634859 114.17265719 251.81634859 114.17265719 243.4375 95.4375 C238.00700183 83.40423893 232.87692086 71.26817391 228 59 C227.67 59 227.34 59 227 59 Z " fill="#FFFFFF" transform="translate(1204,282)"/>
<path d="M0 0 C21.35543061 16.54800595 34.21472351 38.98443753 38.09570312 65.62207031 C38.77370537 71.73926964 38.82832917 77.82707858 38.80078125 83.9765625 C38.79754852 84.96260468 38.79754852 84.96260468 38.79425049 85.96856689 C38.63930932 115.4691865 28.58384796 139.3513807 8.36328125 160.7265625 C-11.0475372 179.70841259 -37.62141912 187.42452614 -64.22900391 187.4128418 C-91.48106341 187.08464597 -115.76978345 176.48302077 -135.38671875 157.6640625 C-148.22337398 144.22058357 -156.34779782 127.13078119 -160.51171875 109.1640625 C-160.87910156 107.64039063 -160.87910156 107.64039063 -161.25390625 106.0859375 C-166.82344482 77.55158922 -161.14175414 46.59565014 -145.51171875 22.1640625 C-130.04806481 0.37846981 -106.85286628 -13.35735995 -80.73535156 -18.36865234 C-52.19693921 -22.50546855 -23.44462279 -17.13681603 0 0 Z M-111.76171875 30.3515625 C-126.78768821 48.35142175 -130.99670601 70.79648224 -129.234375 93.78125 C-127.05781451 113.72268995 -119.16630637 130.48115931 -104.51171875 144.1640625 C-89.9773701 155.51707303 -71.65526792 160.67894364 -53.38671875 158.7265625 C-37.04304214 156.35409331 -20.63149749 148.96332607 -10.296875 135.59228516 C4.42879927 115.23862755 8.47627667 91.22321317 4.66381836 66.58886719 C1.23489696 47.81857789 -7.86987685 30.92543494 -23.76953125 19.90625 C-51.91069041 2.31454222 -88.78167205 6.24944321 -111.76171875 30.3515625 Z " fill="#FFFFFF" transform="translate(867.51171875,297.8359375)"/>
<path d="M0 0 C94.58598726 0 94.58598726 0 111.890625 16.83984375 C116.20973806 21.42209605 118.95065339 26.05792467 121 32 C121.22558594 32.65097656 121.45117188 33.30195313 121.68359375 33.97265625 C125.48047619 47.56287684 123.6282835 63.60282692 117.45703125 76.1328125 C113.19047798 83.29905987 107.89816291 88.40122473 101 93 C101.76183594 93.29132813 102.52367187 93.58265625 103.30859375 93.8828125 C116.37206714 99.06906036 125.77902273 105.17552874 131.8984375 118.125 C138.37818294 135.03667605 137.21692016 154.47015646 130 171 C123.84460267 182.85902237 113.38032999 190.39744449 101 195 C68.58390311 205.08338183 32.85712703 200 0 200 C0 134 0 68 0 0 Z M31 27 C31 45.81 31 64.62 31 84 C36.713125 84.0825 42.42625 84.165 48.3125 84.25 C50.98146362 84.30462402 50.98146362 84.30462402 53.7043457 84.36035156 C65.39214756 84.50053377 75.46980916 83.43751752 84.34375 75 C91.4576342 66.40964926 91.78458622 55.63674749 91 45 C89.40221124 38.71472255 85.29022357 34.54899694 80 31 C73.30733042 27.34685839 66.91606995 26.85273918 59.41796875 26.90234375 C58.69565063 26.90335083 57.97333252 26.90435791 57.22912598 26.90539551 C54.54856768 26.91060048 51.86803213 26.92456163 49.1875 26.9375 C40.1846875 26.9684375 40.1846875 26.9684375 31 27 Z M31 110 C31 131.12 31 152.24 31 174 C36.960625 174.061875 42.92125 174.12375 49.0625 174.1875 C50.90980713 174.21481201 52.75711426 174.24212402 54.66040039 174.27026367 C68.34542503 174.38842591 82.93304967 174.13956011 94 165 C101.07992636 157.99539201 103.11034295 149.73028379 103.4375 140 C103.24640876 132.00891189 101.14813089 126.34855697 96.875 119.6875 C88.01510569 111.40542489 77.04577768 109.67638169 65.375 109.8046875 C64.06015625 109.80770874 64.06015625 109.80770874 62.71875 109.81079102 C59.47911258 109.82116728 56.23955041 109.8490891 53 109.875 C42.11 109.936875 42.11 109.936875 31 110 Z " fill="#FFFFFF" transform="translate(926,282)"/>
<path d="M0 0 C89.0110786 0 89.0110786 0 109.7109375 19.6484375 C121.88671718 32.15666168 125.42305172 45.74055956 125.36572266 62.82763672 C125.04183579 79.82723987 119.63721574 93.9276798 107.87109375 106.41015625 C102.53610715 111.22253192 96.41867077 114.79066461 90 118 C91.65412401 122.53124396 93.89701726 126.61864057 96.25 130.8125 C96.68546143 131.59238281 97.12092285 132.37226563 97.56958008 133.17578125 C102.35846548 141.70861343 107.3089716 150.14688028 112.25390625 158.58984375 C116.2389709 165.39797091 120.1851215 172.22816464 124.125 179.0625 C124.75237061 180.15046875 125.37974121 181.2384375 126.02612305 182.359375 C127.18205633 184.36515282 128.33654739 186.37176283 129.48925781 188.37939453 C130.42328828 189.99960834 131.36401159 191.61600922 132.31542969 193.22607422 C135 197.79172601 135 197.79172601 135 200 C123.12 200 111.24 200 99 200 C90.00286883 183.24063802 81.04794984 166.46109932 72.16845703 149.63916016 C71.44437711 148.26853294 70.72025705 146.89792692 69.99609375 145.52734375 C69.65221619 144.8755011 69.30833862 144.22365845 68.95404053 143.55206299 C66.37594253 138.67683447 63.72145274 133.84710534 61.01586914 129.04125977 C60 127 60 127 60 125 C50.1 125 40.2 125 30 125 C30 149.75 30 174.5 30 200 C20.1 200 10.2 200 0 200 C0 134 0 68 0 0 Z M30 26 C30 50.42 30 74.84 30 100 C59.16917934 101.33487301 59.16917934 101.33487301 85 89 C93.27772649 79.50040535 95.63574051 69.79302033 95.26953125 57.35546875 C94.44806482 47.12880697 90.75429317 40.79861585 83 34 C67.93983331 23.23906038 47.04934838 26 30 26 Z " fill="#FFFFFF" transform="translate(1843,282)"/>
<path d="M0 0 C10.23 0 20.46 0 31 0 C31.33 28.38 31.66 56.76 32 86 C35.3 81.71 38.6 77.42 42 73 C54.5 56.75 54.5 56.75 55.74926758 55.12597656 C56.58507376 54.03941221 57.42084835 52.95282355 58.2565918 51.86621094 C60.30183636 49.20711452 62.34769991 46.5485006 64.39453125 43.890625 C69.66386557 37.04644925 74.9164786 30.1897091 80.16088867 23.32641602 C84.42037831 17.75358901 88.69440542 12.19214181 92.9765625 6.63671875 C94.99252908 4.17624321 94.99252908 4.17624321 96.08862305 1.85961914 C98.62435321 -0.60744647 100.70076947 -0.45454968 104.1335907 -0.45318604 C105.35717033 -0.42221832 105.35717033 -0.42221832 106.60546875 -0.390625 C107.44467361 -0.38496521 108.28387848 -0.37930542 109.14851379 -0.37347412 C111.82875633 -0.35108406 114.50766163 -0.30088453 117.1875 -0.25 C119.00453798 -0.22993832 120.82159692 -0.21168697 122.63867188 -0.1953125 C127.09296312 -0.15121086 131.54625485 -0.08216659 136 0 C133.61220336 4.06725375 130.94101247 7.75799541 128 11.4375 C127.00645261 12.69136044 126.01296461 13.94526796 125.01953125 15.19921875 C124.51502441 15.8339209 124.01051758 16.46862305 123.49072266 17.12255859 C121.21330503 19.99077699 118.94982892 22.86987483 116.6875 25.75 C116.01944336 26.5996936 116.01944336 26.5996936 115.33789062 27.46655273 C111.54233212 32.29841615 107.7697895 37.14801829 104 42 C96.58171239 51.54785296 89.11251457 61.05486924 81.62451172 70.5480957 C80.23405084 72.3158189 78.85105588 74.08917853 77.46875 75.86328125 C75.97686587 77.7588239 74.46219079 79.63714337 72.90625 81.48046875 C72.05546875 82.51107422 72.05546875 82.51107422 71.1875 83.5625 C70.46626953 84.39974609 70.46626953 84.39974609 69.73046875 85.25390625 C68.74117878 87.08132418 68.74117878 87.08132418 69.78149414 89.34912109 C70.93035674 91.84848998 72.17428081 93.92348038 73.765625 96.16015625 C74.31863281 96.94326172 74.87164063 97.72636719 75.44140625 98.53320312 C76.03824219 99.36787109 76.63507813 100.20253906 77.25 101.0625 C78.52617514 102.86579096 79.80221303 104.66917907 81.078125 106.47265625 C81.73103516 107.39191895 82.38394531 108.31118164 83.05664062 109.25830078 C86.05741626 113.4918071 89.02802094 117.74625497 92 122 C93.16390945 123.66286755 94.32797252 125.32562759 95.4921875 126.98828125 C97.85248124 130.36003531 100.2117491 133.7325041 102.5703125 137.10546875 C108.03176599 144.91438909 113.49998885 152.71817665 119 160.5 C120.47217116 162.58472917 121.94399993 164.6696992 123.41552734 166.75488281 C124.53267443 168.33782343 125.65022529 169.92047911 126.76806641 171.50292969 C128.61886286 174.12509539 130.46601089 176.74979983 132.3125 179.375 C133.15651367 180.56899414 133.15651367 180.56899414 134.01757812 181.78710938 C138.19961643 187.74245013 142.13544028 193.83446585 146 200 C140.64809578 200.39902361 135.30499195 200.68720429 129.94165039 200.87890625 C128.12371045 200.95883695 126.30678247 201.06765545 124.49243164 201.20703125 C109.89069043 202.29965122 109.89069043 202.29965122 105.1496582 198.52798462 C101.75910769 194.74184887 99.344773 190.45338726 97.02713013 185.95269775 C95.72215923 183.47179131 94.17300834 181.22400961 92.5390625 178.94921875 C91.56752008 177.52877457 90.59616343 176.10820332 89.625 174.6875 C88.5234426 173.07681943 87.42187994 171.46614245 86.3203125 169.85546875 C85.77149414 169.05286621 85.22267578 168.25026367 84.65722656 167.42333984 C81.40057491 162.66118246 78.14239954 157.90006738 74.88427734 153.13891602 C72.1248861 149.10637578 69.36635917 145.07324887 66.609375 141.0390625 C66.05145264 140.22300537 65.49353027 139.40694824 64.91870117 138.56616211 C63.81938351 136.95795767 62.72057517 135.34940494 61.62231445 133.74047852 C59.16303305 130.14177924 56.69341493 126.55195985 54.18359375 122.98828125 C53.75852539 122.38290527 53.33345703 121.7775293 52.89550781 121.15380859 C51.77148005 119.55681684 50.64182359 117.96379087 49.51171875 116.37109375 C48 114 48 114 48 112 C47.29335205 112.71978027 46.5867041 113.43956055 45.85864258 114.18115234 C44.01647902 116.04552141 42.1997718 117.64716786 40.1472168 119.30712891 C33.43629691 125.40467941 31.41223584 131.84691636 30.89382744 140.73442459 C30.57342328 148.46954553 30.6584902 156.20856321 30.78112793 163.94708252 C30.84299996 168.73542358 30.82201916 173.52407164 30.81536102 178.31271362 C30.81436644 185.54396773 30.91679565 192.76702639 31 200 C20.77 200 10.54 200 0 200 C0 134 0 68 0 0 Z " fill="#FFFFFF" transform="translate(1688,282)"/>
<path d="M0 0 C1.2065625 0.0309375 1.2065625 0.0309375 2.4375 0.0625 C3.65609253 2.60123444 4.8746825 5.13997011 6.09326172 7.67871094 C7.17297216 9.92808013 8.25272606 12.17742847 9.33251953 14.42675781 C12.02735422 20.04054281 14.72169457 25.65456273 17.4140625 31.26953125 C22.73990145 42.37460576 28.0800625 53.47264099 33.4375 64.5625 C40.28240288 78.73140217 47.09340227 92.91644342 53.89648438 107.10546875 C59.45033503 118.6877314 65.01447848 130.26488816 70.6027832 141.83056641 C76.49829211 154.03226457 82.37831715 166.24112818 88.20458984 178.47607422 C89.43127454 181.04944009 90.66286056 183.6204239 91.89453125 186.19140625 C92.63832671 187.75245846 93.38183398 189.31364804 94.125 190.875 C94.63426025 191.93412598 94.63426025 191.93412598 95.15380859 193.01464844 C97.4375 197.83402478 97.4375 197.83402478 97.4375 200.0625 C85.5575 200.0625 73.6775 200.0625 61.4375 200.0625 C55.56935569 187.48790506 49.97039851 174.78816657 44.4375 162.0625 C14.4075 161.7325 -15.6225 161.4025 -46.5625 161.0625 C-46.8925 162.7125 -47.2225 164.3625 -47.5625 166.0625 C-48.64293272 168.73641612 -49.75928331 171.36044232 -50.94140625 173.98828125 C-51.27293198 174.73587204 -51.6044577 175.48346283 -51.94602966 176.25370789 C-53.00094703 178.62961335 -54.06285913 181.00231629 -55.125 183.375 C-55.84356352 184.99002776 -56.56166765 186.60526 -57.27929688 188.22070312 C-59.03420454 192.17076697 -60.79854443 196.1164189 -62.5625 200.0625 C-74.1125 200.0625 -85.6625 200.0625 -97.5625 200.0625 C-96.84706615 196.48533074 -96.43112549 194.4251456 -94.91113281 191.35913086 C-94.57224533 190.66793655 -94.23335785 189.97674225 -93.88420105 189.26460266 C-93.33050591 188.1571595 -93.33050591 188.1571595 -92.765625 187.02734375 C-92.3809053 186.2454216 -91.99618561 185.46349945 -91.59980774 184.65788269 C-90.77305219 182.97835854 -89.94381146 181.30005588 -89.11233521 179.62286377 C-86.90960855 175.17810653 -84.72627292 170.72385338 -82.54296875 166.26953125 C-82.1079454 165.38275696 -81.67292206 164.49598267 -81.22471619 163.58233643 C-77.75601626 156.49583636 -74.40862768 149.36184467 -71.125 142.1875 C-65.37161355 129.6439541 -59.31594362 117.25731638 -53.24099731 104.86724854 C-48.06925866 94.31444838 -42.96059953 83.74568047 -38.0625 73.0625 C-31.84326913 59.49859489 -25.28968015 46.10326056 -18.71484375 32.70898438 C-17.89699495 31.04173556 -17.07928439 29.37441893 -16.26171875 27.70703125 C-15.86673187 26.90194122 -15.471745 26.0968512 -15.06478882 25.2673645 C-11.97024567 18.9410825 -8.9583637 12.57807174 -6.00163269 6.18623352 C-3.16008912 0.07707534 -3.16008912 0.07707534 0 0 Z M-0.5625 59.0625 C-6.54738694 71.66340742 -12.22229583 84.40345985 -17.91229248 97.13923645 C-20.03131074 101.88023741 -22.16041287 106.61663773 -24.29296875 111.3515625 C-25.19500942 113.35628775 -26.09689246 115.36108384 -26.99871826 117.36590576 C-27.58163892 118.66082034 -28.16517315 119.95545889 -28.74932861 121.24981689 C-29.55982234 123.04599752 -30.36786615 124.84328304 -31.17578125 126.640625 C-31.63766846 127.66575195 -32.09955566 128.69087891 -32.57543945 129.74707031 C-33.62785849 131.79630973 -33.62785849 131.79630973 -33.5625 133.0625 C-11.7825 133.0625 9.9975 133.0625 32.4375 133.0625 C26.27586693 118.89074394 20.10534145 104.72677117 13.82495117 90.60791016 C9.18172455 80.16400784 4.74185593 69.65060528 0.4375 59.0625 C0.1075 59.0625 -0.2225 59.0625 -0.5625 59.0625 Z " fill="#FFFFFF" transform="translate(380.5625,281.9375)"/>
<path d="M0 0 C0.70648682 0.00087616 1.41297363 0.00175232 2.14086914 0.00265503 C20.80803633 0.07894776 41.64269572 2.58019572 55.4375 16.375 C51.1475 25.285 46.8575 34.195 42.4375 43.375 C38.72889765 41.89155906 36.07813635 40.60791912 32.8125 38.5 C17.12065027 29.05263085 -0.86721355 27.701996 -18.5625 31.375 C-33.8786273 35.40114518 -47.48325359 45.32616513 -55.75 58.8515625 C-67.43392344 79.06925406 -70.4160491 104.87604164 -64.54150391 127.50708008 C-61.21364134 138.72089268 -55.55421515 149.79329246 -47.5625 158.375 C-47.01722656 158.973125 -46.47195313 159.57125 -45.91015625 160.1875 C-38.02702962 167.91537906 -25.57733659 174.20239087 -14.5625 175.375 C-13.16064453 175.57029297 -13.16064453 175.57029297 -11.73046875 175.76953125 C6.6255156 177.82920397 23.49002264 173.3149324 39.63671875 164.765625 C42.4375 163.375 42.4375 163.375 44.4375 163.375 C45.97324781 167.47374125 47.48851224 171.57975689 49 175.6875 C49.43763672 176.85474609 49.87527344 178.02199219 50.32617188 179.22460938 C50.73544922 180.34287109 51.14472656 181.46113281 51.56640625 182.61328125 C52.13983765 184.1607605 52.13983765 184.1607605 52.72485352 185.73950195 C53.4375 188.375 53.4375 188.375 52.4375 191.375 C50.1582892 192.82761702 47.97460381 194.05708529 45.5625 195.25 C44.86012207 195.60006104 44.15774414 195.95012207 43.43408203 196.31079102 C18.8211927 208.00851244 -12.01990755 209.12954423 -37.71337891 200.42553711 C-51.75709927 195.33632988 -63.09733223 187.97414573 -73.5625 177.375 C-74.37589844 176.5603125 -75.18929688 175.745625 -76.02734375 174.90625 C-93.90140729 156.08501386 -101.73017347 130.99779792 -101.80273438 105.50170898 C-101.81232727 103.47401069 -101.84334804 101.44737816 -101.875 99.41992188 C-102.09587698 72.00969362 -91.39582028 47.08118261 -72.8125 27.1875 C-52.83114019 8.20721032 -27.23379229 -0.08252423 0 0 Z " fill="#FFFFFF" transform="translate(1616.5625,278.625)"/>
<path d="M0 0 C44.22 0 88.44 0 134 0 C134 8.91 134 17.82 134 27 C116.84 27 99.68 27 82 27 C82 84.09 82 141.18 82 200 C71.77 200 61.54 200 51 200 C51 142.91 51 85.82 51 27 C34.17 27 17.34 27 0 27 C0 18.09 0 9.18 0 0 Z " fill="#FFFFFF" transform="translate(1060,282)"/>
<path d="M0 0 C10.23 0 20.46 0 31 0 C31.06788646 20.08081606 31.1230801 40.16153829 31.15543652 60.24244022 C31.17086371 69.56767466 31.19187331 78.89283239 31.22631836 88.21801758 C31.25634837 96.35185614 31.2756051 104.48563911 31.28226548 112.61953157 C31.28615485 116.92091951 31.29520746 121.22214851 31.31719017 125.52348518 C31.337771 129.58396833 31.3437909 133.64422924 31.33932304 137.7047596 C31.34013871 139.18363661 31.34597442 140.66252219 31.35761642 142.14135361 C31.4981575 160.93859353 28.46649083 177.57326116 15.4140625 191.71875 C5.69778864 201.00845574 -8.29754795 203.34928226 -21.20214844 203.30493164 C-35.91497796 202.96967419 -50.22039364 200.21882237 -62 191 C-61.44030144 186.82770165 -60.48690425 183.41485726 -58.71484375 179.6015625 C-58.26689453 178.62832031 -57.81894531 177.65507812 -57.35742188 176.65234375 C-56.88884766 175.65332031 -56.42027344 174.65429688 -55.9375 173.625 C-55.46505859 172.60277344 -54.99261719 171.58054687 -54.50585938 170.52734375 C-53.34367781 168.01515329 -52.17490756 165.50625747 -51 163 C-46.43038269 163 -46.09225514 163.79431315 -42.87890625 166.62109375 C-35.61031398 171.95542446 -26.74111294 173.00107718 -18 172 C-12.47701007 170.811277 -8.44832995 168.53209078 -5 164 C-0.28443519 153.8585761 -0.84120963 142.51192797 -0.79467773 131.57592773 C-0.78508166 130.13619212 -0.77507061 128.69645922 -0.76467896 127.25672913 C-0.73781103 123.37310591 -0.71670427 119.48947077 -0.69667697 115.60580707 C-0.67470472 111.53788796 -0.64737138 107.47000485 -0.62062073 103.40211487 C-0.57084497 95.71008626 -0.52585051 88.01803751 -0.48259836 80.32596976 C-0.43309621 71.56411437 -0.3782265 62.80229513 -0.32291877 54.04047477 C-0.209331 36.02701534 -0.10315048 18.01352243 0 0 Z " fill="#FFFFFF" transform="translate(653,282)"/>
<path d="M0 0 C10.56 0 21.12 0 32 0 C32 66 32 132 32 200 C21.44 200 10.88 200 0 200 C0 134 0 68 0 0 Z " fill="#FFFFFF" transform="translate(483,282)"/>
<path d="M0 0 C3.84615141 1.86874995 6.62254852 5.18881346 9.60686302 8.18433666 C10.31262474 8.86173901 11.01838646 9.53914135 11.7455349 10.23707104 C12.40746849 10.89642651 13.06940208 11.55578197 13.75139427 12.23511791 C14.35959007 12.83622387 14.96778587 13.43732983 15.59441185 14.05665112 C16.79436302 15.87183666 16.79436302 15.87183666 16.67109585 17.66100216 C15.41034924 20.84019429 13.38552773 22.64875823 10.96658897 25.06037426 C10.45937406 25.57015245 9.95215914 26.07993064 9.42957407 26.60515666 C7.72610965 28.31356723 6.01213515 30.01102642 4.29802513 31.70875072 C3.07557404 32.93035572 1.85378292 34.15262145 0.6326046 35.37549877 C-2.68699166 38.69595711 -6.01576813 42.00707323 -9.34623837 45.31661987 C-12.82428688 48.77593709 -16.2938631 52.24373015 -19.76433754 55.71064281 C-26.3385996 62.27557399 -32.92047284 68.83281926 -39.50509781 75.38735461 C-47.00060317 82.84934849 -54.48760974 90.3198447 -61.97390568 97.79107618 C-77.37502818 113.16082601 -92.78682111 128.51983811 -108.20563698 143.87183666 C-111.32529739 142.3831993 -113.44576311 140.86894974 -115.87751198 138.39527416 C-116.87331276 137.38980541 -116.87331276 137.38980541 -117.88923073 136.36402416 C-118.91210182 135.31601635 -118.91210182 135.31601635 -119.95563698 134.24683666 C-120.65301979 133.54043041 -121.3504026 132.83402416 -122.06891823 132.10621166 C-123.78576186 130.36584963 -125.4977553 128.62098685 -127.20563698 126.87183666 C-125.62521782 123.05576412 -123.21774119 120.62474656 -120.32248878 117.71453381 C-119.82132526 117.2081336 -119.32016173 116.70173339 -118.80381143 116.17998773 C-117.12430493 114.48548676 -115.43773234 112.79820361 -113.75104713 111.11085033 C-112.54504061 109.8972223 -111.33943828 108.68319248 -110.13421059 107.46879101 C-106.86023832 104.17287406 -103.57971623 100.88355348 -100.297297 97.59605098 C-98.24826572 95.54337799 -96.20053915 93.48941252 -94.15324974 91.43500233 C-87.01529796 84.27256221 -79.87164918 77.11585539 -72.7232151 69.96387768 C-66.05165168 63.28867305 -59.39335172 56.60043408 -52.74091494 49.90617293 C-47.0333472 44.16397801 -41.31626165 38.43137715 -35.59170377 32.70612031 C-32.17066086 29.28428241 -28.75375818 25.85853797 -25.34652519 22.42294407 C-22.14487176 19.19523781 -18.93160908 15.9795705 -15.70885849 12.77293301 C-14.52575832 11.59165717 -13.34695253 10.40606293 -12.17271805 9.21597385 C-10.573974 7.59696074 -8.96073719 5.99397142 -7.34275246 4.39422131 C-5.99161323 3.04006508 -5.99161323 3.04006508 -4.61317825 1.65855217 C-2.20563698 -0.12816334 -2.20563698 -0.12816334 0 0 Z " fill="#FFFFFF" transform="translate(413.2056369781494,79.12816333770752)"/>
<path d="M0 0 C8.58 0 17.16 0 26 0 C26 58.41 26 116.82 26 177 C17.42 177 8.84 177 0 177 C0 118.59 0 60.18 0 0 Z " fill="#FFFFFF" transform="translate(240,4)"/>
<path d="M0 0 C3.11966041 1.48863736 5.24012613 3.00288692 7.671875 5.4765625 C8.33574219 6.146875 8.99960938 6.8171875 9.68359375 7.5078125 C10.70646484 8.55582031 10.70646484 8.55582031 11.75 9.625 C12.44738281 10.33140625 13.14476562 11.0378125 13.86328125 11.765625 C15.58012488 13.50598703 17.29211832 15.25084981 19 17 C17.42727345 20.79247167 15.05461108 23.1918788 12.16586304 26.074646 C11.67004435 26.57217353 11.17422567 27.06970107 10.66338217 27.58230519 C9.00214591 29.24683353 7.33386648 30.90411658 5.66552734 32.56152344 C4.47269971 33.7537869 3.28031236 34.94649099 2.08833313 36.13960266 C-1.14871734 39.3772274 -4.39190117 42.60864481 -7.63620806 45.83899593 C-11.02572142 49.21601437 -14.40957912 52.59869012 -17.79403687 55.98077393 C-24.20380283 62.38432149 -30.6186504 68.78275334 -37.03533208 75.17937016 C-44.34026753 82.46195784 -51.63953083 89.75021929 -58.93831944 97.03896666 C-73.95256969 112.03230674 -88.97394102 127.01849505 -104 142 C-105.10211038 141.06004958 -106.20353839 140.11929903 -107.3046875 139.17822266 C-107.91812012 138.65443024 -108.53155273 138.13063782 -109.16357422 137.5909729 C-111.85548018 135.25886154 -114.43597982 132.84844338 -117 130.375 C-117.50144531 129.9109375 -118.00289063 129.446875 -118.51953125 128.96875 C-119.9375 127.5859375 -119.9375 127.5859375 -122 125 C-121.82845881 120.86275795 -119.08763562 118.7181807 -116.28611755 115.925354 C-115.79115329 115.42782647 -115.29618903 114.93029893 -114.78622586 114.41769481 C-113.12421758 112.75074122 -111.45170639 111.09474307 -109.77905273 109.43847656 C-108.58615791 108.24642785 -107.39392308 107.05371836 -106.20230103 105.86039734 C-102.96327984 102.62051415 -99.71508109 99.38997458 -96.46518588 96.16100407 C-93.07121853 92.7857692 -89.68572457 89.4020573 -86.29933167 86.01922607 C-79.88444118 79.61366612 -73.46194052 73.21579295 -67.03668696 66.82062984 C-59.7225562 59.54001167 -52.41692516 52.25089016 -45.11200416 44.96103334 C-30.08412392 29.96452497 -15.04557403 14.97875524 0 0 Z " fill="#FFFFFF" transform="translate(212,295)"/>
<path d="M0 0 C3.06225848 1.31199759 4.87934377 3.27924393 7.23019028 5.63740635 C7.72771781 6.13237061 8.22524535 6.62733487 8.73784947 7.13729805 C10.40480306 8.79930633 12.06080121 10.47181752 13.71706772 12.14447117 C14.90911643 13.33736599 16.10182592 14.52960082 17.29514694 15.72122288 C20.53503013 18.96024406 23.7655697 22.20844281 26.99454021 25.45833802 C30.36977508 28.85230537 33.75348698 32.23779933 37.13631821 35.62419224 C43.54187816 42.03908272 49.93975133 48.46158339 56.33491445 54.88683695 C63.61553262 62.2009677 70.90465412 69.50659875 78.19451094 76.81151974 C93.19101931 91.83939998 108.17678904 106.87794987 123.15554428 121.9235239 C121.66690692 125.04318431 120.15265736 127.16365003 117.67898178 129.5953989 C117.00866928 130.25926609 116.33835678 130.92313328 115.64773178 131.60711765 C114.59972397 132.62998875 114.59972397 132.62998875 113.53054428 133.6735239 C112.82413803 134.37090672 112.11773178 135.06828953 111.38991928 135.78680515 C109.64955725 137.50364878 107.90469447 139.21564223 106.15554428 140.9235239 C102.36307261 139.35079735 99.96366549 136.97813499 97.08089828 134.08938694 C96.58337075 133.59356825 96.08584321 133.09774957 95.57323909 132.58690608 C93.90871075 130.92566981 92.2514277 129.25739039 90.59402084 127.58905125 C89.40175738 126.39622361 88.20905329 125.20383626 87.01594162 124.01185703 C83.77831688 120.77480656 80.54689947 117.53162273 77.31654835 114.28731585 C73.93952991 110.89780249 70.55685416 107.51394478 67.17477036 104.12948704 C60.77122279 97.71972108 54.37279094 91.3048735 47.97617412 84.88819182 C40.69358644 77.58325637 33.40532499 70.28399308 26.11657763 62.98520446 C11.12323754 47.97095421 -3.86295077 32.94958289 -18.84445572 17.9235239 C-17.9045053 16.82141352 -16.96375475 15.71998551 -16.02267838 14.6188364 C-15.49888596 14.00540379 -14.97509354 13.39197117 -14.43542862 12.75994968 C-12.10331725 10.06804372 -9.6928991 7.48754409 -7.21945572 4.9235239 C-6.75539322 4.42207859 -6.29133072 3.92063328 -5.81320572 3.40399265 C-2.39669977 -0.09937362 -2.39669977 -0.09937362 0 0 Z " fill="#FFFFFF" transform="translate(94.84445571899414,86.07647609710693)"/>
<path d="M0 0 C56.43 0 112.86 0 171 0 C171 8.58 171 17.16 171 26 C114.57 26 58.14 26 0 26 C0 17.42 0 8.84 0 0 Z " fill="#FFFFFF" transform="translate(19,253)"/>
</svg>
