<?xml version="1.0" encoding="UTF-8"?>
<svg version="1.1" xmlns="http://www.w3.org/2000/svg" width="2000" height="555">
<path d="M0 0 C101.91489362 0 101.91489362 0 126 24 C126.84691406 24.81210937 126.84691406 24.81210937 127.7109375 25.640625 C138.75426947 37.20982992 141.96967212 53.08132733 142.375 68.5 C141.92068607 87.24538795 136.3155438 105.35617019 123.25 119.25 C116.73517075 125.42327509 108.75053633 129.59302013 101 134 C108.3026357 146.68466277 115.61453071 159.36332606 123 172 C128.06803395 180.67240461 133.10720928 189.36096474 138.125 198.0625 C138.75277344 199.15111328 139.38054687 200.23972656 140.02734375 201.36132812 C143.02814328 206.5685979 146.02297596 211.77909963 149 217 C151.69362642 213.69228786 153.48280272 210.20972015 155.3359375 206.375 C155.65110321 205.72511108 155.96626892 205.07522217 156.29098511 204.40563965 C157.32353999 202.27259076 158.34944603 200.13642265 159.375 198 C160.10109667 196.49537499 160.82733551 194.99081858 161.55371094 193.48632812 C166.40074649 183.42635177 171.11836183 173.31198644 175.78271484 163.16601562 C181.11709335 151.6257446 186.72399327 140.22117243 192.32067871 128.80639648 C197.49269326 118.25304794 202.60167329 107.68375197 207.5 97 C213.22794317 84.50676963 219.25761479 72.17044924 225.3086853 59.83139038 C231.30913034 47.59023449 237.17858145 35.30304562 242.8737793 22.91699219 C246.42732358 15.19492385 250.09640413 7.55168365 254 0 C255.65 0 257.3 0 259 0 C259.67482422 1.34964844 259.67482422 1.34964844 260.36328125 2.7265625 C260.6672583 3.33443604 260.97123535 3.94230957 261.28442383 4.56860352 C261.98634285 5.97260824 262.68799111 7.37674836 263.3894043 8.78100586 C265.45132301 12.90792934 267.51856144 17.0320754 269.59375 21.15234375 C275.20927816 32.31708296 280.6846205 43.53952787 286.0546875 54.82421875 C289.32205642 61.68747529 292.62914513 68.53144387 295.9375 75.375 C302.80455889 89.58493702 309.63576137 103.81193603 316.45898438 118.04296875 C322.6081553 130.86674043 328.77462601 143.68197379 334.96234131 156.48718262 C339.26235326 165.38696908 343.54505255 174.29477752 347.79467773 183.21875 C350.10094043 188.05521746 352.42567337 192.88189177 354.77972412 197.69525146 C356.07830294 200.35067294 357.37293807 203.008011 358.66772461 205.6652832 C359.30021253 206.960101 359.93477871 208.25390591 360.5715332 209.54663086 C361.46170949 211.35407269 362.34428269 213.16525299 363.2265625 214.9765625 C363.73783691 216.01893066 364.24911133 217.06129883 364.77587891 218.13525391 C366 221 366 221 367 226 C353.8 226 340.6 226 327 226 C319.11342352 210.22684703 319.11342352 210.22684703 316.69140625 204.578125 C315.91313477 202.76441406 315.91313477 202.76441406 315.11914062 200.9140625 C314.60544922 199.70492187 314.09175781 198.49578125 313.5625 197.25 C313.01657333 195.98164283 312.4703502 194.71341323 311.92382812 193.4453125 C308 184.25829646 308 184.25829646 308 182 C274.01 182 240.02 182 205 182 C204.01 184.97 204.01 184.97 203 188 C202.45950301 189.36181632 201.90091262 190.71666512 201.32006836 192.06176758 C201.00311508 192.79885452 200.6861618 193.53594147 200.35960388 194.29536438 C199.85482262 195.45820198 199.85482262 195.45820198 199.33984375 196.64453125 C198.81494102 197.86011971 198.81494102 197.86011971 198.2794342 199.1002655 C197.54355508 200.80264485 196.8064265 202.50448459 196.06811523 204.20581055 C194.93430169 206.81987387 193.80576953 209.43617315 192.67773438 212.05273438 C191.96125132 213.70846917 191.2444652 215.36407286 190.52734375 217.01953125 C190.18879868 217.80487747 189.8502536 218.59022369 189.50144958 219.39936829 C187.11502727 224.88497273 187.11502727 224.88497273 186 226 C183.763169 226.14713174 181.52164547 226.22316127 179.28051758 226.2722168 C178.2267392 226.29653023 178.2267392 226.29653023 177.15167236 226.32133484 C170.66019956 226.46170916 164.16734849 226.53967936 157.67468739 226.60025311 C153.3109023 226.64122826 148.9493609 226.70157136 144.58666992 226.80932617 C140.37071772 226.91311266 136.15676627 226.96765961 131.93961143 226.98771095 C130.33384538 227.00364055 128.72815243 227.03686515 127.12311745 227.08786583 C114.5741038 227.46744683 114.5741038 227.46744683 110.7520752 223.90438843 C109.17382923 221.32123094 108.05028829 218.83412772 107 216 C106.44425293 214.98325195 105.88850586 213.96650391 105.31591797 212.91894531 C104.87908691 212.06397461 104.44225586 211.20900391 103.9921875 210.328125 C103.486875 209.34585938 102.9815625 208.36359375 102.4609375 207.3515625 C101.93757813 206.32804688 101.41421875 205.30453125 100.875 204.25 C96.68035594 196.1108512 92.41586709 188.02128749 88 180 C83.50469105 171.82184187 79.12424467 163.58895807 74.8125 155.3125 C73.96461914 153.68924805 73.96461914 153.68924805 73.09960938 152.03320312 C72.57818359 151.02837891 72.05675781 150.02355469 71.51953125 148.98828125 C71.05651611 148.09665283 70.59350098 147.20502441 70.11645508 146.28637695 C69 144 69 144 68 141 C51.665 141.495 51.665 141.495 35 142 C35 169.72 35 197.44 35 226 C23.45 226 11.9 226 0 226 C0 151.42 0 76.84 0 0 Z M35 29 C35 56.72 35 84.44 35 113 C69.17096138 114.22199329 69.17096138 114.22199329 98 99 C106.21503574 89.24089732 108.69570349 78.06982947 108.3359375 65.51953125 C107.28024405 54.459301 103.65074603 46.14852067 95 39 C77.12639555 27.21740042 55.4624725 29 35 29 Z M256 67 C255.6095752 67.88107422 255.21915039 68.76214844 254.81689453 69.66992188 C253.27513809 73.14829428 251.73207576 76.62608612 250.1885376 80.10366821 C249.4798041 81.70056579 248.77126714 83.2975506 248.06292725 84.8946228 C243.74416925 94.6296002 239.39784721 104.35125223 235 114.05078125 C234.17821536 115.86588211 233.35643794 117.68098625 232.53466797 119.49609375 C231.33678945 122.14133589 230.13720712 124.78573591 228.93218994 127.42773438 C227.80735718 129.89394713 226.68836492 132.3627389 225.5703125 134.83203125 C225.23765381 135.55667068 224.90499512 136.28131012 224.56225586 137.02790833 C224.25312256 137.71326157 223.94398926 138.39861481 223.62548828 139.10473633 C223.35842072 139.69120438 223.09135315 140.27767242 222.81619263 140.88191223 C221.67238598 143.85018563 220.87389566 146.94136518 220 150 C244.09 150 268.18 150 293 150 C290.72409972 143.01029344 290.72409972 143.01029344 288.01391602 136.29174805 C287.65206711 135.48096298 287.2902182 134.67017792 286.91740417 133.83482361 C286.53344986 132.98569901 286.14949554 132.1365744 285.75390625 131.26171875 C285.34622513 130.35019547 284.93854401 129.43867218 284.51850891 128.49952698 C283.20352039 125.56051975 281.88306052 122.62400722 280.5625 119.6875 C278.75107967 115.64579234 276.94303188 111.60258629 275.13671875 107.55859375 C274.69253601 106.56461578 274.24835327 105.57063782 273.79071045 104.54653931 C271.17004187 98.66804595 268.59267846 92.77396984 266.08203125 86.84765625 C265.79914749 86.18042038 265.51626373 85.51318451 265.22480774 84.82572937 C263.948534 81.80832343 262.68293594 78.78683624 261.42797852 75.76049805 C260.99541748 74.73093994 260.56285645 73.70138184 260.1171875 72.640625 C259.56973877 71.31853027 259.56973877 71.31853027 259.01123047 69.96972656 C258.15985664 67.83349295 258.15985664 67.83349295 256 67 Z " fill="#FFFFFF" transform="translate(1101,318)"/>
<path d="M0 0 C16.27551247 14.20000901 27.25043057 32.07941575 33.53515625 52.68359375 C33.73778076 53.33432861 33.94040527 53.98506348 34.14916992 54.65551758 C37.46239334 66.07141754 38.21596358 77.79233173 38.16015625 89.62109375 C38.1545166 90.88671143 38.14887695 92.1523291 38.14306641 93.45629883 C37.73289188 125.26919166 26.34896265 152.97174818 4.53515625 176.12109375 C-19.22885676 198.83173739 -50.24359661 207.39087521 -82.46484375 206.72265625 C-106.81228607 205.75792008 -130.36786558 196.88426144 -149.15234375 181.37109375 C-150.08949219 180.59894531 -151.02664063 179.82679688 -151.9921875 179.03125 C-174.558867 159.5030014 -187.00274619 130.85854584 -189.15234375 101.37109375 C-190.63583642 65.09444661 -182.55709696 33.10308012 -157.60546875 5.88769531 C-116.99449628 -36.49727797 -43.89183976 -37.13089445 0 0 Z M-129.15234375 27.37109375 C-130.21582031 28.43650391 -130.21582031 28.43650391 -131.30078125 29.5234375 C-146.96887504 46.12201196 -151.55583444 67.28683118 -151.52734375 89.43359375 C-151.52713226 90.11474243 -151.52692078 90.79589111 -151.52670288 91.49768066 C-151.47938352 106.79327104 -149.60837942 120.74529757 -142.15234375 134.37109375 C-141.71148437 135.20769531 -141.270625 136.04429687 -140.81640625 136.90625 C-130.78397132 154.8371489 -114.84766163 166.25433579 -95.59765625 172.42578125 C-76.03468554 177.79339906 -55.04099797 174.75425111 -37.33203125 165.27734375 C-17.94623851 153.6553943 -6.86943109 136.00745522 -1.4375 114.546875 C-0.92402025 112.15938158 -0.50454087 109.78732982 -0.15234375 107.37109375 C-0.04148437 106.61054688 0.069375 105.85 0.18359375 105.06640625 C1.71698984 92.42624932 1.01172239 79.88683932 -1.15234375 67.37109375 C-1.40951172 65.86289062 -1.40951172 65.86289062 -1.671875 64.32421875 C-4.17169865 52.38957682 -10.24918886 40.63157718 -18.15234375 31.37109375 C-18.80396484 30.50677734 -18.80396484 30.50677734 -19.46875 29.625 C-30.86891625 15.04188135 -48.8387373 8.6835514 -66.46484375 5.8359375 C-89.60976136 3.31892771 -112.76867074 10.73406497 -129.15234375 27.37109375 Z " fill="#FFFFFF" transform="translate(653.15234375,340.62890625)"/>
<path d="M0 0 C106.03977273 0 106.03977273 0 124.4140625 17.25390625 C137.12522031 31.24870315 138.6305234 46.30462314 138.13623047 64.39697266 C137.4809626 76.91752116 131.68713749 89.02100216 123 98 C120.67310816 99.75834707 118.32587443 101.31799674 115.8203125 102.80859375 C113.85032957 103.87978123 113.85032957 103.87978123 113 106 C114.258125 106.20625 115.51625 106.4125 116.8125 106.625 C127.91975222 109.16678499 137.91963352 116.03953426 144.08007812 125.69238281 C153.94695 142.79558481 154.69191019 163.6058164 150.10546875 182.640625 C144.87738818 198.52807833 135.92040226 209.43168001 121 217 C84.92046225 233.31273887 34.98771749 226 0 226 C0 151.42 0 76.84 0 0 Z M35 30 C35 51.78 35 73.56 35 96 C65.03152013 98.1351514 65.03152013 98.1351514 92.24609375 87.05859375 C99.83977042 79.26985015 102.53972101 69.90418486 103.25 59.25 C103.08191301 51.24294704 100.65651612 44.53878238 95.0703125 38.75390625 C83.05557368 28.57538223 67.04618682 29.72280911 52.25 29.875 C46.5575 29.91625 40.865 29.9575 35 30 Z M35 124 C35 147.76 35 171.52 35 196 C42.5075 196.061875 50.015 196.12375 57.75 196.1875 C60.09448242 196.21481201 62.43896484 196.24212402 64.85449219 196.27026367 C80.43139578 196.37625956 95.27276563 195.79989501 107.3984375 184.75390625 C115.02381147 176.40319183 116.48430626 165.88287555 116.24609375 154.953125 C115.43983671 145.27804055 111.56836147 138.44489224 104.6875 131.75 C94.38292098 125.04004157 83.60882801 123.67917891 71.5234375 123.8046875 C70.58991455 123.80670166 69.6563916 123.80871582 68.69458008 123.81079102 C65.25466904 123.82114292 61.81482884 123.84906415 58.375 123.875 C50.66125 123.91625 42.9475 123.9575 35 124 Z " fill="#FFFFFF" transform="translate(714,318)"/>
<path d="M0 0 C100.91489362 0 100.91489362 0 125 24 C125.84691406 24.81210937 125.84691406 24.81210937 126.7109375 25.640625 C138.83985108 38.34710589 141.66430814 56.20715566 141.28515625 73.0546875 C139.93808354 91.69226878 133.63934387 108.34515128 119.98046875 121.37890625 C113.87729352 126.37460195 106.83694029 130.11614407 100 134 C100.34554932 134.59087402 100.69109863 135.18174805 101.04711914 135.79052734 C107.8738437 147.46820254 114.68084821 159.15662729 121.4375 170.875 C122.05383301 171.94371338 122.67016602 173.01242676 123.30517578 174.11352539 C126.2061045 179.14594064 129.10416814 184.17997664 131.99645996 189.21736145 C133.64220947 192.08313463 135.28982662 194.94783263 136.9375 197.8125 C137.56333984 198.90167725 138.18917969 199.99085449 138.83398438 201.11303711 C142.66989929 207.76575933 146.60181458 214.33231252 150.77734375 220.77734375 C152 223 152 223 152 226 C138.8 226 125.6 226 112 226 C107.25843399 217.70225949 102.60308188 209.48606412 98.25 201 C94.25813744 193.28104128 90.18570648 185.61555551 86 178 C81.68885582 170.14630994 77.46405326 162.25178493 73.3125 154.3125 C72.79494141 153.32572266 72.27738281 152.33894531 71.74414062 151.32226562 C71.26783203 150.40767578 70.79152344 149.49308594 70.30078125 148.55078125 C69.87966064 147.74294189 69.45854004 146.93510254 69.0246582 146.1027832 C68 144 68 144 67 141 C50.665 141.495 50.665 141.495 34 142 C34 169.72 34 197.44 34 226 C22.78 226 11.56 226 0 226 C0 151.42 0 76.84 0 0 Z M34 29 C34 56.72 34 84.44 34 113 C67.39692511 114.17068269 67.39692511 114.17068269 96 100 C104.77847095 91.08938003 107.26720636 78.91140213 107.24658203 66.80639648 C107.05608085 56.06656632 103.64106039 49.11838089 96.4765625 41.34765625 C89.15730478 34.33187995 78.84825935 31.31718554 69 30 C67.77216797 29.83371094 67.77216797 29.83371094 66.51953125 29.6640625 C55.68980055 28.50764104 44.92060252 29 34 29 Z " fill="#FFFFFF" transform="translate(1823,318)"/>
<path d="M0 0 C11.55 0 23.1 0 35 0 C35.33 32.01 35.66 64.02 36 97 C46.77955193 83.14057609 57.51609019 69.25492945 68.17724609 55.30541992 C73.10443247 48.85965988 78.04974801 42.42805968 83 36 C84.2481602 34.37783522 85.49607958 32.75548551 86.74389648 31.13305664 C87.57788647 30.04878861 88.41203233 28.96464046 89.24633789 27.88061523 C91.35732255 25.13753483 93.46592627 22.39267779 95.5703125 19.64453125 C95.99828125 19.08636719 96.42625 18.52820313 96.8671875 17.953125 C98.03974601 16.42370086 99.21131803 14.89352056 100.3828125 13.36328125 C100.80014648 12.85796875 101.21748047 12.35265625 101.64746094 11.83203125 C103.11597218 9.94662833 103.11597218 9.94662833 104.32910156 7.40234375 C106.28923197 4.08971164 107.81623652 2.2052963 111 0 C117.97046763 -1.68712906 125.40174639 -0.93612094 132.5 -0.625 C134.4868675 -0.57479386 136.47385651 -0.52917442 138.4609375 -0.48828125 C143.31030822 -0.37852842 148.15381386 -0.2062612 153 0 C151.64881155 2.89856255 150.10301359 5.32343725 148.12890625 7.8359375 C147.56018799 8.56329102 146.99146973 9.29064453 146.40551758 10.04003906 C145.79732178 10.81057617 145.18912598 11.58111328 144.5625 12.375 C143.6202356 13.57721191 143.6202356 13.57721191 142.65893555 14.80371094 C140.77580011 17.20498931 138.88817739 19.60268544 137 22 C136.00486235 23.2679577 135.01003963 24.53616268 134.015625 25.8046875 C131.78904626 28.64370422 129.5586079 31.47965622 127.32666016 34.31445312 C125.04913797 37.20808823 122.77472459 40.10416552 120.5 43 C117.78661257 46.45427351 115.07274646 49.90816048 112.35546875 53.359375 C106.61656124 60.65116337 100.90632386 67.96465915 95.21850586 75.29638672 C92.40750579 78.9171383 89.58728508 82.52933165 86.734375 86.1171875 C85.97640625 87.07238281 85.97640625 87.07238281 85.203125 88.046875 C84.26348247 89.22900592 83.32096315 90.40885835 82.375 91.5859375 C80.22698937 94.29083978 78.48168244 96.88746686 77 100 C83.41933752 109.48531346 89.88586093 118.92575371 96.625 128.1875 C101.09973239 134.33859133 105.47794333 140.54235237 109.76831055 146.82324219 C118.19868034 159.1600727 126.82973816 171.3594587 135.45629883 183.55957031 C139.96052127 189.93339959 144.43303899 196.32924485 148.89892578 202.72998047 C151.60939312 206.60913264 154.33253877 210.47659548 157.109375 214.30859375 C157.57972168 214.95868408 158.05006836 215.60877441 158.53466797 216.27856445 C159.40446525 217.47679338 160.27826323 218.67213219 161.15673828 219.86401367 C164 223.78060367 164 223.78060367 164 226 C158.02299409 226.27310578 152.0496556 226.47203532 146.06787109 226.60424805 C144.03630292 226.65937814 142.00516759 226.73431092 139.97509766 226.82983398 C123.20860465 227.59867513 123.20860465 227.59867513 118.12329102 223.91772461 C116.02415154 221.05231829 114.52946244 218.20226556 113 215 C111.70629606 213.05616474 110.38130148 211.1328262 109.02734375 209.23046875 C107.66229814 207.21734107 106.29907499 205.20297665 104.9375 203.1875 C103.81998581 201.53873675 102.7024684 199.88997566 101.58468628 198.24139404 C100.45360312 196.57287387 99.32322247 194.90387926 98.19287109 193.23486328 C94.88747731 188.35883705 91.5696213 183.49134691 88.25 178.625 C87.63584229 177.72442871 87.02168457 176.82385742 86.38891602 175.89599609 C81.8635879 169.26190002 77.33438793 162.63044538 72.79443359 156.00634766 C69.98793419 151.91096318 67.19086588 147.80952138 64.40625 143.69921875 C63.51993896 142.39440552 63.51993896 142.39440552 62.61572266 141.06323242 C61.48254418 139.3946152 60.3518767 137.72428906 59.22412109 136.05200195 C58.71445801 135.30265381 58.20479492 134.55330566 57.6796875 133.78125 C57.23351074 133.12189453 56.78733398 132.46253906 56.32763672 131.78320312 C55.01070294 130.01437555 53.59810959 128.51553962 52 127 C51.26394531 127.94101562 50.52789063 128.88203125 49.76953125 129.8515625 C48.78390233 131.10941274 47.79822253 132.36722311 46.8125 133.625 C46.32974609 134.24246094 45.84699219 134.85992187 45.34960938 135.49609375 C44.86943359 136.10839844 44.38925781 136.72070312 43.89453125 137.3515625 C43.45987549 137.90666504 43.02521973 138.46176758 42.57739258 139.03369141 C41 141 41 141 38.44262695 143.6270752 C35.52453383 147.14766396 35.28699274 150.47817309 35.34057617 154.93310547 C35.32485062 156.09021782 35.32485062 156.09021782 35.30880737 157.27070618 C35.28016144 159.80328105 35.28633612 162.33448033 35.29296875 164.8671875 C35.27984729 166.62982894 35.26454168 168.39245537 35.24714661 170.15505981 C35.20733586 174.78124949 35.19710871 179.40704547 35.19311523 184.03338623 C35.18213278 189.59110658 35.13427754 195.14861787 35.09262848 200.70617676 C35.0335576 209.13762759 35.02122475 217.56798648 35 226 C23.45 226 11.9 226 0 226 C0 151.42 0 76.84 0 0 Z " fill="#FFFFFF" transform="translate(1648,318)"/>
<path d="M0 0 C0.82958984 1.68603516 0.82958984 1.68603516 1 4 C0.11002041 6.36709721 -0.82704578 8.49200722 -1.96484375 10.734375 C-2.27700333 11.37240051 -2.5891629 12.01042603 -2.91078186 12.66778564 C-3.90864721 14.70085435 -4.92275438 16.72531229 -5.9375 18.75 C-6.61762339 20.12837046 -7.29667301 21.50727131 -7.97460938 22.88671875 C-9.63735038 26.26408934 -11.31470232 29.63383215 -13 33 C-16.59999181 32.20537518 -18.89230087 30.85645353 -21.9375 28.75 C-38.76891309 17.82080243 -59.97740405 15.00473698 -79.5378418 19.07836914 C-99.8475662 24.08946575 -114.74701641 36.13567042 -125.6875 53.6875 C-129.52175415 60.48936181 -131.87442996 67.5229948 -134 75 C-134.23589844 75.81597656 -134.47179688 76.63195312 -134.71484375 77.47265625 C-140.76344138 102.50590338 -136.27795381 131.12383344 -123 153 C-112.76520327 168.05227431 -98.38789535 177.85113416 -80.75 181.9375 C-57.42277575 185.86193376 -36.13378184 181.28996706 -15.4609375 170.0390625 C-13 169 -13 169 -10 170 C-8.81738281 172.43676758 -8.81738281 172.43676758 -7.703125 175.64453125 C-7.30222656 176.79630859 -6.90132812 177.94808594 -6.48828125 179.13476562 C-6.07964844 180.34841797 -5.67101563 181.56207031 -5.25 182.8125 C-4.82589844 184.01455078 -4.40179687 185.21660156 -3.96484375 186.45507812 C-0.52958537 196.48670398 -0.52958537 196.48670398 -2 200 C-21.39693373 216.8018791 -54.18474995 217.57464418 -78 216 C-106.25469149 212.96693436 -132.65803118 199.66085189 -150.74609375 177.61083984 C-172.17221133 150.08562104 -179.40540898 115.32919413 -175.23095703 81.09008789 C-170.97491968 51.61600758 -156.3597972 26.05820847 -133.54296875 6.94140625 C-98.31820998 -19.04210406 -37.23997374 -27.59916835 0 0 Z " fill="#FFFFFF" transform="translate(1628,330)"/>
<path d="M0 0 C49.83 0 99.66 0 151 0 C151 10.23 151 20.46 151 31 C131.86 31 112.72 31 93 31 C93 95.35 93 159.7 93 226 C81.45 226 69.9 226 58 226 C58 161.65 58 97.3 58 31 C38.86 31 19.72 31 0 31 C0 20.77 0 10.54 0 0 Z " fill="#FFFFFF" transform="translate(939,318)"/>
<path d="M0 0 C11.55 0 23.1 0 35 0 C35.06785295 22.94925949 35.12306078 45.89843713 35.15543652 68.84777164 C35.17087207 79.50475227 35.19189794 90.1616659 35.22631836 100.81860352 C35.25632246 110.11267168 35.27559904 119.4066913 35.28226548 128.70080656 C35.28615916 133.61699051 35.29524004 138.53303564 35.31719017 143.44917488 C35.33772971 148.08747696 35.34379894 152.72558459 35.33932304 157.36392784 C35.3401405 159.05566087 35.3460012 160.74740119 35.35761642 162.43909454 C35.49014309 182.75758727 32.33203159 200.60877551 18.08984375 216.07421875 C13.05832102 220.83711809 7.4592483 223.60736121 1 226 C-0.28583984 226.48146484 -0.28583984 226.48146484 -1.59765625 226.97265625 C-19.36035796 232.46759275 -42.58275372 230.01213004 -59.39453125 222.40625 C-63.26405336 220.31775231 -66.63451116 217.8105677 -70 215 C-67.72578162 207.75423446 -64.88273904 200.87948128 -61.8125 193.9375 C-61.34908203 192.88111328 -60.88566406 191.82472656 -60.40820312 190.73632812 C-59.2756523 188.15598036 -58.13952397 185.57727399 -57 183 C-53.76870756 183.7147005 -52.23280733 184.47246509 -49.875 186.8125 C-42.86021143 192.91551312 -35.97341846 194.35013139 -26.875 194.4375 C-26.12307373 194.44765137 -25.37114746 194.45780273 -24.59643555 194.46826172 C-17.90122774 194.36414174 -12.21632611 193.06857104 -7.1875 188.375 C-1.57670577 180.76170008 -0.88933678 170.87970969 -0.84178162 161.74232483 C-0.83684364 161.04622351 -0.83190566 160.35012218 -0.82681805 159.63292688 C-0.81155841 157.31917027 -0.80311402 155.00544115 -0.79467773 152.69165039 C-0.78509012 151.025612 -0.77507953 149.359576 -0.76467896 147.69354248 C-0.73771953 143.18378557 -0.71666162 138.6740183 -0.69667697 134.16422582 C-0.67476193 129.4463331 -0.64740031 124.72847202 -0.62062073 120.01060486 C-0.5707683 111.08248996 -0.52580192 102.15435743 -0.48259836 93.22620815 C-0.43316221 83.05935016 -0.37826779 72.89252393 -0.32291877 62.72569668 C-0.20921312 41.81715932 -0.10306983 20.90859268 0 0 Z " fill="#FFFFFF" transform="translate(405,318)"/>
<path d="M0 0 C2.4695126 1.30234598 4.14539062 2.97410783 6.09795094 4.96850872 C7.29677906 6.1818388 7.29677906 6.1818388 8.51982594 7.4196806 C9.34482594 8.26981731 10.16982594 9.11995403 11.01982594 9.99585247 C11.86029469 10.84985638 12.70076344 11.70386028 13.56670094 12.5837431 C15.64130191 14.69370659 17.70858425 16.81034955 19.76982594 18.93335247 C18.15172952 22.99294967 15.26315653 25.71348879 12.2143755 28.72931194 C11.64096932 29.30442697 11.06756314 29.879542 10.47678101 30.47208476 C8.55298059 32.39918106 6.62211596 34.31903916 4.69121265 36.23901653 C3.31119532 37.61846978 1.93161813 38.99836347 0.55244923 40.37866497 C-3.1949133 44.12660209 -6.94841704 47.86833419 -10.70303488 51.60900116 C-14.62506293 55.51853966 -18.54144037 59.43373019 -22.45841503 63.3483305 C-29.87753573 70.76123122 -37.30174066 78.16901828 -44.72777545 85.57499194 C-53.18141728 94.00629091 -61.62939113 102.44325924 -70.07688832 110.88071394 C-87.4550074 128.23791928 -104.84024958 145.58797538 -122.23017406 162.93335247 C-127.43715913 160.45301974 -130.97818827 156.59268133 -135.04267406 152.55835247 C-136.24440258 151.4059306 -136.24440258 151.4059306 -137.47040844 150.23022747 C-138.22257641 149.48514935 -138.97474438 148.74007122 -139.74970531 147.97241497 C-140.78768261 146.95461956 -140.78768261 146.95461956 -141.84662914 145.91626263 C-143.23017406 143.93335247 -143.23017406 143.93335247 -143.15466309 142.17208862 C-141.77844781 138.83945533 -139.34307537 136.62692737 -136.82189465 134.13066387 C-136.25216515 133.55484328 -135.68243566 132.97902268 -135.09544164 132.38575298 C-133.18026213 130.45389482 -131.25449215 128.53295635 -129.32856274 126.61181927 C-127.95500186 125.23092107 -126.58206648 123.84940045 -125.20971203 122.46730328 C-121.47719153 118.71252677 -117.73504236 114.96748885 -113.99043345 111.22477221 C-110.86881238 108.10327061 -107.75153992 104.97744386 -104.63415319 101.85171443 C-97.28316072 94.48147448 -89.92400533 87.11945417 -82.56000805 79.76220989 C-74.95258298 72.16143244 -67.3600515 64.54600351 -59.77450675 56.92339486 C-53.26877892 50.38703046 -46.75348548 43.86030983 -40.23047143 37.34119636 C-36.33124463 33.44404268 -32.43593484 29.5431605 -28.54995823 25.63279057 C-24.89781498 21.95848173 -21.233941 18.2962993 -17.5605135 14.64327335 C-16.21132813 13.2975157 -14.86643442 11.94744027 -13.52609539 10.59287167 C-11.70180265 8.75054809 -9.86294318 6.92415702 -8.01940441 5.10112286 C-7.2208055 4.28374717 -7.2208055 4.28374717 -6.40607327 3.44985884 C-2.78662085 -0.08327664 -2.78662085 -0.08327664 0 0 Z " fill="#FFFFFF" transform="translate(466.23017406463623,89.06664752960205)"/>
<path d="M0 0 C3.99284026 1.60532401 6.67304347 4.39908928 9.644104 7.40359497 C10.20288482 7.96066694 10.76166564 8.51773891 11.33737922 9.09169185 C13.20919798 10.96021544 15.07377721 12.83579931 16.93847656 14.71142578 C18.27852143 16.05203476 19.61900678 17.39220357 20.9598999 18.73196411 C24.60040279 22.37189247 28.23470023 26.01796057 31.86793232 29.66514444 C35.6653614 33.47506409 39.4684435 37.27933216 43.27093506 41.084198 C50.47134033 48.29082296 57.66663157 55.50253165 64.86010909 62.71607101 C73.04957417 70.92787986 81.24470944 79.13401996 89.44033098 87.33968377 C106.29988039 104.22014625 123.15228013 121.10773149 140 138 C137.51966727 143.20698506 133.65932886 146.7480142 129.625 150.8125 C128.85671875 151.61365234 128.0884375 152.41480469 127.296875 153.24023438 C126.55179688 153.99240234 125.80671875 154.74457031 125.0390625 155.51953125 C124.02126709 156.55750854 124.02126709 156.55750854 122.98291016 157.61645508 C121 159 121 159 119.23119736 158.91905308 C115.94006712 157.56340277 113.77292617 155.17483409 111.31793213 152.67869568 C110.75506776 152.11839458 110.19220338 151.55809348 109.61228251 150.98081356 C107.72422415 149.09770457 105.84710174 147.20405816 103.96972656 145.31030273 C102.62004433 143.95977449 101.26970155 142.6099061 99.91874695 141.26065063 C96.24912924 137.59189528 92.58884835 133.9139496 88.93013859 130.2343204 C85.10646487 126.39191996 81.27431988 122.55798761 77.4430542 118.72315979 C70.18751404 111.45828741 62.93965646 104.18580003 55.69450831 96.91056544 C47.44655339 88.6291032 39.19009997 80.35613629 30.9329114 72.08388221 C13.94578157 55.06537667 -3.03061438 38.03619728 -20 21 C-19.04162906 19.87609641 -18.08243549 18.75289426 -17.12289429 17.62998962 C-16.32180017 16.69165236 -16.32180017 16.69165236 -15.50452232 15.73435879 C-13.85464832 13.83244386 -12.14023287 12.02570237 -10.3515625 10.25390625 C-9.73925781 9.64482422 -9.12695312 9.03574219 -8.49609375 8.40820312 C-7.87863281 7.79912109 -7.26117188 7.19003906 -6.625 6.5625 C-5.98433594 5.92634766 -5.34367187 5.29019531 -4.68359375 4.63476562 C-3.12469121 3.08749668 -1.56348584 1.54263508 0 0 Z " fill="#FFFFFF" transform="translate(106,97)"/>
<path d="M0 0 C9.57 0 19.14 0 29 0 C29 66 29 132 29 200 C19.43 200 9.86 200 0 200 C0 134 0 68 0 0 Z " fill="#FFFFFF" transform="translate(271,4)"/>
<path d="M0 0 C3.3247945 1.57588004 5.51631617 3.2817149 8.109375 5.9140625 C8.86347656 6.67460937 9.61757812 7.43515625 10.39453125 8.21875 C11.17183594 9.0128125 11.94914063 9.806875 12.75 10.625 C13.54277344 11.42679687 14.33554688 12.22859375 15.15234375 13.0546875 C17.10614493 15.03202846 19.05512103 17.01388909 21 19 C19.39141036 23.0095647 16.57405613 25.69977399 13.55844116 28.68206787 C12.71670788 29.52636443 12.71670788 29.52636443 11.85796988 30.38771749 C9.97562709 32.27335563 8.08622302 34.15175458 6.19677734 36.03027344 C4.84631628 37.3801704 3.49629537 38.73050783 2.14668274 40.08125305 C-1.52010416 43.7486145 -5.19303117 47.4097706 -8.86707354 51.06986141 C-12.70502028 54.89531785 -16.5373157 58.72642706 -20.37020874 62.5569458 C-27.62995763 69.81047493 -34.89479039 77.05889013 -42.1614536 84.30549169 C-50.4337207 92.55541524 -58.70031924 100.81100877 -66.96644139 109.0670886 C-83.97131802 126.05105199 -100.9833175 143.02786582 -118 160 C-119.12390359 159.04162906 -120.24710574 158.08243549 -121.37001038 157.12289429 C-121.99556855 156.58883154 -122.62112673 156.05476879 -123.26564121 155.50452232 C-125.16755614 153.85464832 -126.97429763 152.14023287 -128.74609375 150.3515625 C-129.35517578 149.73925781 -129.96425781 149.12695312 -130.59179688 148.49609375 C-131.20087891 147.87863281 -131.80996094 147.26117188 -132.4375 146.625 C-133.07365234 145.98433594 -133.70980469 145.34367188 -134.36523438 144.68359375 C-135.91250473 143.12468978 -137.45690292 141.56303148 -139 140 C-133.18005861 132.87276727 -126.61789784 126.48475106 -120.10986328 119.99633789 C-118.79843517 118.68519216 -117.48722783 117.37382558 -116.17622375 116.06225586 C-112.63140668 112.51715281 -109.08352291 108.97513349 -105.53506708 105.43367314 C-101.82170271 101.72657556 -98.11118493 98.01663095 -94.40036011 94.30699158 C-87.37957822 87.28931321 -80.35625192 80.27418708 -73.33200061 73.25998157 C-65.33245265 65.27162517 -57.33575642 57.28041663 -49.33929467 49.28897107 C-32.89602711 32.85614572 -16.44919389 16.42689296 0 0 Z " fill="#FFFFFF" transform="translate(240,333)"/>
<path d="M0 0 C64.02 0 128.04 0 194 0 C194 9.57 194 19.14 194 29 C129.98 29 65.96 29 0 29 C0 19.43 0 9.86 0 0 Z " fill="#FFFFFF" transform="translate(21,285)"/>
</svg>
